<?xml version="1.0" encoding="UTF-8" standalone="no"?>
<svg
   xmlns="http://www.w3.org/2000/svg"
   id="svg883"
   height="32"
   width="32"
   viewBox="20 0 1620 1520">
  <defs>
  <path
     id="shape"
     d="m 237,38 h 1 c 14,144 74,240 184,312 l -2,1 c -119,-53 -239,-50 -355,5 l -2,-1 C 161,273 221,181 237,38 Z" />
    <use id="shape90" href="#shape"   transform="rotate(180, 190, 200)" />
    <g id="group1">
      <use href="#shape" x="200" y="50" />
      <use href="#shape" x="600" y="50" />
      <use href="#shape" x="1000" y="50" />
      <use href="#shape90" x="500" y="20" />
      <use href="#shape90" x="905" y="20" />

      <use href="#shape" x="0" y="400" />
      <use href="#shape" x="400" y="400" />
      <use href="#shape" x="805" y="400" />
      <use href="#shape" x="1205" y="400" />
      <use href="#shape90" x="300" y="380" />
      <use href="#shape90" x="700" y="380" />
      <use href="#shape90" x="1100" y="380" />
    </g>
  </defs>


  <use href="#group1" x="0" y="0" />
  <use href="#group1" x="0" y="705" transform="rotate(180, 840, 1120)" />



</svg>
